<?xml version="1.0" encoding="UTF-8" standalone="no"?>
<svg width="214px" height="82px" viewBox="0 0 214 82" version="1.1" xmlns="http://www.w3.org/2000/svg" xmlns:xlink="http://www.w3.org/1999/xlink">
    <!-- Generator: sketchtool 39.1 (31720) - http://www.bohemiancoding.com/sketch -->
    <title>CC6DEC02-3E2F-4213-9B57-7665A0A3B98D</title>
    <desc>Created with sketchtool.</desc>
    <defs></defs>
    <g id="Symbols" stroke="none" stroke-width="1" fill="none" fill-rule="evenodd">
        <g id="wipcore-logo-blue">
            <g id="wipcore-logo">
                <path d="M185.860903,33.0255 L189.701778,33.0255 L189.701778,34.5102857 C190.556607,33.6317143 191.443639,32.8732143 192.70539,32.6828571 C194.084241,32.4749286 195.436744,32.8966429 196.613598,33.5848571 L194.874665,36.9849286 C193.703666,36.1590714 191.985226,35.8574286 190.840575,36.9 C189.792531,37.8547143 189.669576,39.5035 189.669576,40.8125714 L189.713488,49.9204286 L185.860903,49.9204286 L185.860903,33.0255 Z" id="Shape" fill="#171717"></path>
                <polygon id="Shape" fill="#171717" points="112.846211 32.6301429 108.531081 42.0572143 103.926129 32.6711429 99.3270315 42.0542857 95.008974 32.6301429 90.752394 32.6301429 99.3270315 49.9175 103.926129 40.426 108.531081 49.9145714 117.102791 32.6301429"></polygon>
                <path d="M159.504651,45.3928571 C160.10619,45.0506329 160.627308,44.5832526 161.032804,44.0222857 L163.775869,46.8015 C163.452026,47.1934736 163.091259,47.5533915 162.69855,47.8762857 C162.227734,48.2672702 161.715252,48.6051217 161.170397,48.8837143 C160.561013,49.1965234 159.921502,49.446731 159.261669,49.6305 C158.514694,49.8331215 157.743344,49.9316698 156.969439,49.9233571 C155.784284,49.9316078 154.609553,49.7015549 153.514993,49.2468571 C152.470805,48.8162746 151.517297,48.1922927 150.704596,47.4077143 C149.901385,46.6251264 149.258938,45.6929371 148.813434,44.6636429 C147.887393,42.5017501 147.887393,40.0546785 148.813434,37.8927857 C149.263623,36.8636444 149.906552,35.9302094 150.707524,35.1428571 C151.513984,34.3504891 152.469098,33.7254557 153.517921,33.3037143 C154.615183,32.8599783 155.788869,32.6361002 156.972367,32.6447857 C157.733636,32.6387741 158.492426,32.732304 159.229466,32.923 C159.885431,33.0936237 160.519889,33.3382646 161.120629,33.6522143 C161.655549,33.9315398 162.161542,34.263106 162.631218,34.6420714 C163.026654,34.9564994 163.387766,35.3118539 163.708536,35.7022143 L160.82788,38.2705714 C160.379829,37.7658257 159.837945,37.353047 159.232394,37.0552143 C158.53331,36.7012156 157.758753,36.5223287 156.975294,36.5339286 C156.319423,36.5257402 155.669144,36.6554446 155.066566,36.9146429 C154.509287,37.151312 154.009907,37.506002 153.602818,37.9542857 C153.207188,38.397957 152.895688,38.9100357 152.683584,39.4654286 C152.460836,40.0466997 152.348641,40.6644952 152.352777,41.287 C152.349646,41.9151304 152.461772,42.5385028 152.683584,43.1261429 C152.891943,43.6873348 153.210464,44.2011382 153.620383,44.6372857 C154.035468,45.0727406 154.533053,45.4211784 155.084131,45.6622857 C156.522702,46.2517222 158.150996,46.1558416 159.510506,45.4016429 L159.504651,45.3928571 Z" id="Shape" fill="#171717"></path>
                <path d="M177.265773,33.292 C179.369817,34.1465652 181.049079,35.8011666 181.93513,37.8927857 C182.839405,40.0590944 182.839405,42.4973342 181.93513,44.6636429 C181.499585,45.6940684 180.862578,46.6270286 180.061532,47.4077143 C179.252091,48.1894024 178.303943,48.8131252 177.265773,49.2468571 C175.064379,50.1495631 172.596332,50.1495631 170.394938,49.2468571 C169.357647,48.81311 168.410462,48.1893678 167.602107,47.4077143 C166.800514,46.6274885 166.163427,45.6944108 165.728509,44.6636429 C164.345139,41.4061811 165.086267,37.6342043 167.599179,35.1428571 C168.401278,34.3534238 169.350049,33.7286364 170.392011,33.3037143 C172.597938,32.4243292 175.056918,32.4243292 177.262845,33.3037143 L177.265773,33.292 Z M175.720055,45.6535 C176.265306,45.4141821 176.755562,45.0652953 177.160383,44.6285 C177.559757,44.1907859 177.866468,43.676758 178.062052,43.1173571 C178.272391,42.5271465 178.378389,41.9048036 178.375294,41.2782143 C178.379368,40.6572719 178.273311,40.0405287 178.062052,39.4566429 C177.860442,38.9000807 177.5544,38.3871729 177.160383,37.9455 C176.759108,37.5010268 176.26821,37.1466918 175.720055,36.9058571 C174.510674,36.396564 173.14711,36.396564 171.937729,36.9058571 C171.389352,37.146303 170.898377,37.5006934 170.497401,37.9455 C170.103034,38.3869152 169.796949,38.8998943 169.595732,39.4566429 C169.38405,40.0404168 169.27798,40.6572363 169.28249,41.2782143 C169.278916,41.9048429 169.384927,42.5272682 169.595732,43.1173571 C169.791316,43.676758 170.098026,44.1907859 170.497401,44.6285 C170.902,45.0655479 171.392312,45.4144747 171.937729,45.6535 C173.14711,46.1627931 174.510674,46.1627931 175.720055,45.6535 L175.720055,45.6535 Z" id="Shape" fill="#171717"></path>
                <path d="M128.581505,56.6444286 L132.42238,56.6444286 L132.42238,48.6142857 C132.81509,48.8568288 133.225065,49.0702115 133.649001,49.2527143 C135.850395,50.1554203 138.318442,50.1554203 140.519836,49.2527143 C141.558006,48.8189824 142.506154,48.1952595 143.315595,47.4135714 C144.116641,46.6328857 144.753648,45.6999256 145.189193,44.6695 C146.575843,41.409033 145.833285,37.6322041 143.315595,35.1399286 C142.512394,34.350472 141.562664,33.7257077 140.519836,33.3007857 C137.876966,32.1930315 134.862392,32.4274391 132.42238,33.9304286 L132.42238,32.6418571 L128.581505,32.6418571 L128.581505,56.6444286 Z M141.319042,43.1144286 C141.123458,43.6738294 140.816748,44.1878573 140.417373,44.6255714 C140.012552,45.0623667 139.522297,45.4112536 138.977045,45.6505714 C137.767665,46.1598645 136.4041,46.1598645 135.19472,45.6505714 C134.649302,45.4115461 134.158991,45.0626193 133.754391,44.6255714 C133.355017,44.1878573 133.048307,43.6738294 132.852722,43.1144286 C132.641918,42.5243397 132.535906,41.9019143 132.53948,41.2752857 C132.534971,40.6543077 132.641041,40.0374883 132.852722,39.4537143 C133.054005,38.8969969 133.360083,38.3840298 133.754391,37.9425714 C134.154227,37.4970429 134.644196,37.1416602 135.191792,36.9 C136.401172,36.3907069 137.764737,36.3907069 138.974118,36.9 C139.522317,37.1407571 140.013231,37.4951032 140.414446,37.9396429 C140.808463,38.3813157 141.114504,38.8942236 141.316115,39.4507857 C141.527314,40.0346875 141.633369,40.6514199 141.629357,41.2723571 C141.634072,41.900739 141.529057,42.5251176 141.319042,43.1173571 L141.319042,43.1144286 Z" id="Shape" fill="#171717"></path>
                <path d="M208.622189,33.2568571 C209.608392,33.6616832 210.504078,34.2590265 211.256936,35.014 C212.025382,35.7905711 212.633209,36.7111062 213.045636,37.7229286 C213.495948,38.8289342 213.720886,40.0137794 213.70725,41.2079286 L213.70725,41.8785714 C213.70725,42.1567857 213.70725,42.4642857 213.67212,42.7805714 L201.376635,42.7805714 C201.594277,43.6727527 202.110868,44.4634276 202.840383,45.0209286 C203.269385,45.3468536 203.742516,45.6101291 204.245581,45.8028571 C204.821835,46.019136 205.433513,46.1254242 206.048919,46.1162143 C206.816251,46.104755 207.577356,45.9763763 208.306019,45.7355 C209.122408,45.477078 209.869939,45.0376047 210.492859,44.4498571 L212.574309,47.5746429 C211.74598,48.2238097 210.835435,48.7604902 209.866375,49.1707143 C208.639499,49.6990013 207.31414,49.9595779 205.978659,49.9350714 C204.784559,49.9455452 203.599995,49.7216787 202.492011,49.2761429 C200.373821,48.4287664 198.685661,46.7642628 197.808016,44.6577857 C197.352012,43.5694271 197.121936,42.3996938 197.131765,41.2196429 C197.123699,40.0789835 197.33541,38.9474538 197.755321,37.8869286 C198.151019,36.8777611 198.734097,35.9526431 199.473762,35.1604286 C201.012588,33.5384509 203.154932,32.6275411 205.390233,32.6447857 C206.497562,32.6312965 207.596413,32.8393982 208.622189,33.2568571 L208.622189,33.2568571 Z M209.245746,38.6395714 C209.06092,38.2312329 208.801827,37.8608219 208.481669,37.5472143 C208.117842,37.1930034 207.686847,36.9151937 207.214063,36.7301429 C206.638913,36.5098301 206.026452,36.4034058 205.410725,36.4167857 C204.816825,36.4026925 204.226242,36.5092955 203.67472,36.7301429 C203.218784,36.9195864 202.801145,37.1905059 202.442244,37.5296429 C202.119696,37.8344324 201.860096,38.1995985 201.678167,38.6044286 C201.513462,38.9657269 201.414333,39.3534603 201.385417,39.7495 L209.541423,39.7495 C209.509258,39.3643424 209.410191,38.9877476 209.248673,38.6366429 L209.245746,38.6395714 Z" id="Shape" fill="#171717"></path>
                <polygon id="Shape" fill="#171717" points="124.29565 32.6301429 124.29565 49.9087143 120.454774 49.9087143 120.454774 32.6301429"></polygon>
                <path d="M119.904405,27.8038571 C119.921931,26.4521947 121.0181,25.3634375 122.369357,25.3555714 C123.030005,25.344563 123.665774,25.6074439 124.125855,26.0818571 C124.59959,26.5349524 124.861858,27.1658994 124.848947,27.8214286 C124.859951,28.4823194 124.597167,29.1183215 124.122927,29.5785714 C123.670508,30.0535589 123.039726,30.3170125 122.383995,30.3048571 C121.722805,30.3056547 121.08868,30.0422507 120.622524,29.573174 C120.156368,29.1040974 119.896793,28.4682023 119.901477,27.8067857 L119.904405,27.8038571 Z" id="Shape" fill="#171717"></path>
                <path d="M33.0075239,39.5913571 L56.0000821,61.5556429 L17.8255267,52.7142857 L33.0075239,39.5913571 Z M35.0421341,67.7056429 L54.2289466,63.2571429 L19.684487,55.2387143 L35.0421341,67.7056429 Z M58.216197,19.2085 L41.9188235,15.4628571 L61.4481532,26.0203571 L58.216197,19.2085 Z M50.0367715,22.181 L35.2499863,14.186 L18.7359781,49.2 L50.0367715,22.181 Z M16.6369631,28.8083571 L16.6369631,48.8456429 L31.9419152,16.4 L16.6369631,28.8083571 Z M34.5649521,38.2471429 L57.0481259,59.5964286 L51.1931327,23.8971429 L34.5649521,38.2471429 Z M81.9699042,41 C81.9699042,63.6436747 63.6203161,82 40.9849521,82 C18.3495881,82 2.77203261e-15,63.6436747 0,41 C-2.77203261e-15,18.3563253 18.3495881,4.15957557e-15 40.9849521,0 C51.8548373,-1.74865264e-15 62.2795202,4.31963045 69.9656897,12.008622 C77.6518592,19.6976135 81.9699042,30.1261239 81.9699042,41 L81.9699042,41 Z M70.7224624,40.7920714 L59.6418878,17.4337857 L34.5268947,11.6615714 L14.5877155,27.8214286 L14.5877155,53.7363571 L34.5268947,69.9079286 L59.4808755,64.1357143 L70.7224624,40.7920714 Z M64.2526949,31.9214286 L60.5991792,57.6196429 L68.44487,40.7862143 L64.2526949,31.9214286 Z M53.2804378,23.9293571 L58.8426813,57.9007857 L62.6074419,28.9840714 L53.2804378,23.9293571 Z" id="Shape" fill="#0000F0"></path>
            </g>
        </g>
    </g>
</svg>